<?xml version="1.0" encoding="UTF-8" standalone="no"?>
<!-- Created with Inkscape (http://www.inkscape.org/) -->

<svg
   width="1024"
   height="1024"
   viewBox="0 0 270.93332 270.93333"
   version="1.1"
   id="svg1"
   xml:space="preserve"
   inkscape:export-filename="logo.webp"
   inkscape:export-xdpi="96"
   inkscape:export-ydpi="96"
   inkscape:version="1.4 (86a8ad7, 2024-10-11)"
   sodipodi:docname="logo.svg"
   xmlns:inkscape="http://www.inkscape.org/namespaces/inkscape"
   xmlns:sodipodi="http://sodipodi.sourceforge.net/DTD/sodipodi-0.dtd"
   xmlns="http://www.w3.org/2000/svg"
   xmlns:svg="http://www.w3.org/2000/svg"><sodipodi:namedview
     id="namedview1"
     pagecolor="#ffffff"
     bordercolor="#000000"
     borderopacity="0.25"
     inkscape:showpageshadow="2"
     inkscape:pageopacity="0.0"
     inkscape:pagecheckerboard="0"
     inkscape:deskcolor="#d1d1d1"
     inkscape:document-units="mm"
     inkscape:zoom="0.24632085"
     inkscape:cx="537.9163"
     inkscape:cy="602.87224"
     inkscape:window-width="1366"
     inkscape:window-height="705"
     inkscape:window-x="-8"
     inkscape:window-y="-8"
     inkscape:window-maximized="1"
     inkscape:current-layer="layer1" /><defs
     id="defs1" /><g
     inkscape:label="Camada 1"
     inkscape:groupmode="layer"
     id="layer1"><path
       style="fill:#407995;stroke:none;stroke-width:3.44302"
       d="M 156.0149,9.4812015 C 128.68401,13.879891 136.88466,53.911451 136.88466,73.758982 V 194.00628 c 0,15.62275 -4.23765,38.60864 2.8559,52.83595 7.76621,15.5765 25.86441,16.20684 40.87038,14.42081 10.13919,-1.20679 19.45389,-5.84374 26.24927,-13.51335 3.0178,-3.40609 4.68085,-9.42533 8.56136,-11.82709 9.80133,-6.06624 19.54689,-4.65167 27.32754,-15.49834 5.43304,-7.57395 3.82731,-18.62902 8.68228,-25.21107 7.4704,-10.1279 17.67787,-14.30528 19.20688,-28.53584 0.63944,-5.95122 0.35125,-12.64985 -1.9815,-18.21927 -1.32927,-3.17363 -4.74673,-6.54709 -4.94281,-10.02061 -0.19796,-3.50739 2.6756,-7.43623 3.35142,-10.93157 1.54837,-8.00781 0.62154,-15.9841 -2.06227,-23.68509 -2.70248,-7.754354 -10.80225,-9.736093 -13.83599,-16.105638 -1.46193,-3.06944 -0.23171,-7.87982 -0.56726,-11.22329 -0.71865,-7.159961 -3.8013,-13.66137 -8.46647,-19.09438 -6.81973,-7.94221 -16.78106,-7.312071 -23.92266,-13.303191 -4.88021,-4.09395 -6.60305,-11.99502 -11.2669,-16.71295 C 195.10861,15.408691 173.01268,6.7455518 156.0149,9.4812015 M 100.44609,11.324901 C 36.284955,22.662161 -12.587749,103.31389 2.880807,165.7664 c 1.820588,7.3504 5.7656052,14.62299 11.060203,20.02716 2.997484,3.05949 7.931724,5.33473 9.958765,9.16306 1.820009,3.43735 0.694069,8.0661 1.094389,11.80318 0.618341,5.77201 2.74347,11.38891 5.61484,16.39736 13.56734,23.6653 50.535881,38.29593 77.124766,33.27972 24.02455,-4.53241 20.9522,-31.26732 20.9522,-49.67708 V 52.806832 c 0,-19.139211 -0.68747,-46.3504302 -28.23988,-41.481931 m 58.3017,8.06371 c 14.98259,-1.87104 34.0603,6.39327 43.41632,17.932501 3.66759,4.52343 2.92824,12.307679 7.7193,15.615759 8.86773,6.122851 20.40475,2.524381 26.87624,13.53793 2.60978,4.44142 4.1148,10.32636 3.88002,15.482861 -0.15734,3.46096 -2.10007,7.552289 -0.57145,10.891528 2.03428,4.443605 8.053,5.366278 11.42926,8.53889 7.36228,6.91805 8.41672,21.13501 3.43224,29.72163 -6.61028,11.38734 -31.7323,1.03609 -42.43502,6.02386 -6.33236,2.95104 -9.19676,11.34521 -16.39736,12.13638 -16.68485,1.83319 -9.01099,-25.19051 -14.90578,-35.42852 -3.81065,-6.61831 -10.31451,-12.42398 -17.88893,-14.10379 -4.10249,-0.90979 -12.75425,0.11602 -15.46111,-3.672669 -2.82399,-3.952719 -0.93625,-13.956809 -0.93625,-18.662099 0,-15.027461 -2.53896,-32.62209 0.30987,-47.37018 1.14315,-5.91785 5.61951,-9.905621 11.53255,-10.644081 M 53.075815,186.71859 C 32.517055,192.49593 14.98367,179.42067 12.227233,158.47868 8.3707899,129.17959 15.081047,98.70702 30.935024,73.758982 44.115054,53.018781 63.089105,35.416781 85.870535,25.864471 c 7.756692,-3.2524 19.221035,-7.68192 27.160245,-2.73919 7.39277,4.602521 4.72351,17.720891 4.72351,25.12671 v 61.034599 c 0,7.04562 2.20063,18.54987 -2.41658,24.42737 -9.95862,12.67683 -30.069325,2.14778 -43.131645,7.76428 -4.17569,1.79545 -12.22088,10.44234 -16.39736,9.39784 -6.285011,-1.57187 -9.379531,-10.45048 -9.67828,-16.08245 -0.474031,-8.93605 4.91315,-15.89468 13.322159,-18.20244 3.573201,-0.9806 15.349381,0.35205 13.04028,-6.35849 -3.333009,-9.68602 -17.46052,-4.35531 -23.0609,-0.61571 -11.96196,7.98748 -18.0039,24.76216 -10.762859,37.93011 2.883079,5.24296 9.18107,8.57632 11.56698,13.74603 1.505769,3.26259 -0.59857,7.44752 -0.686751,10.85001 -0.131859,5.09021 1.93171,9.85215 3.526481,14.57545 M 179.79476,56.233491 c -5.92019,2.28113 -4.68744,10.40475 -2.48337,14.791911 5.99909,11.941029 21.16955,8.59735 27.90041,19.144299 2.82247,4.422718 2.33432,23.281049 9.82168,20.245069 4.85967,-1.97047 4.14142,-9.77448 3.4154,-13.88166 -1.4218,-8.043568 -5.00339,-16.335208 -12.33175,-20.621109 -4.98245,-2.913959 -11.7801,-3.328459 -16.0965,-7.21604 -3.59489,-3.237739 -3.51734,-15.047349 -10.22587,-12.46247 M 70.384165,62.339602 c -9.380911,1.691349 -17.13169,7.52595 -21.564441,15.97422 -1.92288,3.664809 -3.926059,13.71153 3.31983,13.166809 5.32507,-0.40032 9.50765,-13.654279 14.600721,-16.81558 4.20424,-2.60957 9.74418,-3.391649 14.57546,-2.373 2.85002,0.600911 6.05316,2.934591 8.974659,1.40227 4.337623,-2.274999 2.836601,-8.10868 -0.875109,-9.983329 -5.25924,-2.656281 -13.36692,-2.392621 -19.03112,-1.37139 m 76.521005,46.036048 c 5.10756,9.3e-4 10.49121,0.0596 15.48636,1.2666 20.63733,4.98719 5.15606,35.24815 19.16964,46.52882 7.01539,5.64722 18.3007,5.34224 25.38538,-0.0957 3.40257,-2.61163 5.1876,-6.85907 9.22777,-8.66118 6.97135,-3.10956 16.21518,-1.68908 23.64922,-1.68908 6.26567,0 14.13782,-1.28558 18.22418,4.65042 5.73979,8.33774 1.99816,22.29106 -4.6455,28.97021 -3.64837,3.66789 -9.12921,5.736 -11.99152,10.14223 -4.25916,6.55643 -0.67907,15.66565 -5.53118,22.73684 -8.2783,12.06443 -18.96465,7.25434 -28.75162,14.21484 -4.66125,3.31508 -4.93687,10.58198 -8.60775,14.90017 -8.5574,10.06634 -28.49094,14.64558 -40.68342,9.1736 -14.04881,-6.30504 -10.93156,-23.97776 -10.93156,-36.46597 v -105.6718 m -29.15078,37.34954 v 70.14424 c 0,9.51684 2.2109,21.29407 -6.39082,27.8484 -4.91087,3.74198 -11.474971,3.15176 -17.294256,3.12373 -17.673269,-0.0854 -39.29754,-8.94628 -50.58805,-22.77414 -4.569019,-5.59586 -10.56503,-15.88739 -8.33433,-23.5494 1.283111,-4.40719 9.19354,-2.45274 12.73664,-2.78843 3.735951,-0.35401 7.8709,-2.64837 11.56911,-2.16779 6.023291,0.78274 17.093751,5.3072 22.692571,8.05813 3.397289,1.66921 7.21377,5.77842 10.426874,1.17947 2.798122,-4.00497 -1.489974,-8.7879 -4.883794,-10.6659 -8.872061,-4.90939 -20.466031,-1.55699 -25.40366,-12.8807 -1.37294,-3.14867 -2.04481,-6.59072 -1.835271,-10.0206 1.574981,-25.78328 29.09534,-19.8532 46.373416,-22.03184 3.85901,-0.48659 7.17601,-2.62415 10.93157,-3.47517 m 70.14427,36.86171 c -10.13576,1.82356 -20.23453,8.30889 -22.98921,18.70712 -1.29024,4.87044 -1.52943,18.41582 6.55528,17.61617 6.6087,-0.65365 2.90254,-13.99788 6.097,-18.51308 5.67884,-8.02678 13.85807,-3.95783 19.96178,-8.99437 7.58964,-6.2627 -5.03266,-9.64201 -9.62485,-8.81584 z"
       id="path1" /></g></svg>
